<?xml version="1.0" encoding="UTF-8"?>
<svg version="1.1" xmlns="http://www.w3.org/2000/svg" width="512" height="512">
<path d="M0 0 C1.02794678 0.40255005 1.02794678 0.40255005 2.07666016 0.81323242 C16.66336822 6.66056407 29.41686134 14.91481694 36.13012695 29.65698242 C39.52732684 38.76539245 40.10990918 47.88857955 40.70092773 57.50292969 C40.87473808 60.30827261 41.07510563 63.1107839 41.27929688 65.9140625 C41.92016452 75.19034657 42.12188947 84.05224364 41.0625 93.3125 C40.89613058 96.1470752 40.82733568 98.97336531 40.8125 101.8125 C40.80710205 102.53026611 40.8017041 103.24803223 40.79614258 103.98754883 C40.84809316 109.59758548 42.00983149 114.48479775 43.59375 119.8671875 C44.27677869 123.43032052 42.94074167 125.32122623 41.0625 128.3125 C40.2915497 136.47550318 42.74259074 144.69854284 44.37304688 152.64648438 C45.88468416 160.52828895 46.20733464 167.37475338 45.0625 175.3125 C44.94028076 176.22604248 44.81806152 177.13958496 44.69213867 178.08081055 C41.11351755 203.05971993 35.10948483 224.33802937 18.0625 243.3125 C16.89476435 244.68659227 15.72792924 246.06145102 14.5625 247.4375 C-1.65057528 265.67720969 -21.25497225 279.1894013 -43.9375 288.3125 C-44.5975 288.3125 -45.2575 288.3125 -45.9375 288.3125 C-48.71425289 299.18963581 -51.30369883 310.09265547 -53.6875 321.0625 C-53.94128418 322.21773163 -53.94128418 322.21773163 -54.20019531 323.39630127 C-56.35220306 333.22082549 -58.2839122 343.05816424 -59.953125 352.9765625 C-60.12003845 353.95334961 -60.2869519 354.93013672 -60.45892334 355.93652344 C-61.2710377 360.69509381 -62.05708238 365.4550849 -62.79589844 370.22558594 C-64.44054974 380.28247028 -66.89276064 388.33912395 -72.08740234 397.12207031 C-74.40533816 401.11927079 -75.91563829 405.09660635 -77.25 409.5 C-77.61786621 410.63332764 -77.61786621 410.63332764 -77.99316406 411.78955078 C-79.35221908 416.0604767 -80.35213687 420.28023937 -81.1875 424.6875 C-82.84649728 431.78045842 -87.36072824 437.70737662 -92.9375 442.3125 C-96.1484375 442.73828125 -96.1484375 442.73828125 -98.9375 442.3125 C-101.42998118 440.16380933 -101.90095979 438.46534024 -102.6640625 435.2734375 C-103.01105787 430.24696168 -101.83418205 426.31029545 -100.5 421.5 C-97.44460607 409.54066779 -97.43975154 397.96417432 -97.8581543 385.69067383 C-97.98157357 381.99151349 -97.92225202 378.29500162 -97.88989258 374.59448242 C-97.84140764 368.70677675 -97.80695444 362.81908466 -97.78206348 356.93123913 C-97.76650176 353.37599984 -97.74542078 349.82098148 -97.71118164 346.26586914 C-97.67815173 342.81291402 -97.66055899 339.36016937 -97.65286827 335.90706825 C-97.64478571 333.97867983 -97.62144579 332.05037414 -97.59761047 330.12211609 C-97.5956315 319.54985609 -98.06879828 306.89837715 -104.9375 298.3125 C-108.00267305 296.6296599 -110.7488032 295.66237237 -114.07421875 294.68359375 C-123.58168995 291.77991581 -130.29698841 286.22856182 -137.5234375 279.5390625 C-139.68069181 277.54936193 -141.88451779 275.64446179 -144.125 273.75 C-147.48473649 270.82878333 -150.3542817 267.64746641 -153.25 264.2734375 C-156.98935115 259.92817297 -160.62331665 256.09089683 -165.4921875 253.00390625 C-175.3602828 246.70257737 -175.3602828 246.70257737 -176.98046875 242.80078125 C-177.07100222 240.05459918 -176.70098709 237.94962568 -175.9375 235.3125 C-175.72996094 234.49910156 -175.52242188 233.68570313 -175.30859375 232.84765625 C-169.89973055 216.30750936 -151.31511551 201.51912517 -137.9375 191.3125 C-137.05707031 190.63832031 -136.17664063 189.96414062 -135.26953125 189.26953125 C-130.4288498 185.65822922 -125.48068829 182.37495106 -120.3125 179.25 C-106.85544503 171.21503208 -106.85544503 171.21503208 -99.26547241 157.95703125 C-98.79497869 155.36624391 -98.44237639 152.78722648 -98.13671875 150.171875 C-98.01061722 149.20960999 -97.88451569 148.24734497 -97.7545929 147.25592041 C-97.49265873 145.22322831 -97.24023184 143.18929082 -96.99682617 141.15429688 C-96.63067333 138.1096747 -96.23108395 135.0709316 -95.82617188 132.03125 C-93.94793849 117.4076383 -92.6949054 102.61889587 -94.6875 87.9375 C-95.07105627 84.33319916 -94.95934277 83.36255634 -93.4375 79.875 C-89.35634439 75.6918155 -86.04674243 73.55857828 -80.1875 72.875 C-76.64327928 73.35210664 -76.09691102 73.66231375 -73.9375 76.3125 C-73.16792969 76.69148438 -72.39835938 77.07046875 -71.60546875 77.4609375 C-68.1030156 79.89162973 -66.65217239 82.87156944 -64.875 86.625 C-64.53138428 87.3355957 -64.18776855 88.04619141 -63.83374023 88.77832031 C-58.90903148 99.27969214 -56.36215179 109.71950609 -55.9375 121.3125 C-54.968125 121.333125 -53.99875 121.35375 -53 121.375 C-44.34819027 122.68060509 -38.22865222 130.79005015 -33.15625 137.2734375 C-22.06038728 152.47164384 -22.06038728 152.47164384 -22.9375 160.3125 C-25.80879853 167.60195859 -30.87519149 173.68287654 -35.9375 179.5625 C-36.4543335 180.16481445 -36.97116699 180.76712891 -37.50366211 181.38769531 C-39.67761508 183.87989707 -41.80730105 186.19865662 -44.30078125 188.37890625 C-46.45963216 190.31278673 -47.73236719 191.66472645 -48.9375 194.3125 C-49.20390141 199.31019044 -48.70837763 204.10143855 -48.15283203 209.06445312 C-47.81938798 212.54557875 -47.79286704 216.00533343 -47.8125 219.5 C-47.81435303 220.17530762 -47.81620605 220.85061523 -47.81811523 221.54638672 C-47.89887438 231.14234299 -48.43483663 240.73114787 -48.9375 250.3125 C-42.32239745 254.06674636 -36.40226402 254.46286296 -28.9375 253.3125 C-25.26671399 251.56164962 -22.7316684 249.23688207 -19.9375 246.3125 C-19.26332031 245.64863281 -18.58914063 244.98476563 -17.89453125 244.30078125 C0.54606456 225.0041423 14.95142431 190.87919098 15.0625 164.3125 C14.96900391 160.59704681 14.73303904 156.93284007 14.40625 153.23046875 C14.07469099 149.16975267 13.97686479 145.12411251 13.90625 141.05078125 C13.71394335 123.48594509 13.71394335 123.48594509 10.7199707 106.2355957 C6.31038697 89.19667928 4.93843657 71.01709863 3.74560547 53.4934082 C3.29725734 47.3443882 2.47419396 41.87132202 -1.125 36.6875 C-1.67220703 35.86378906 -1.67220703 35.86378906 -2.23046875 35.0234375 C-8.25442108 28.98570039 -14.18337435 28.68948776 -22.42089844 28.60205078 C-23.88478183 28.60538022 -25.34866106 28.61311623 -26.8125 28.625 C-27.55858521 28.62836365 -28.30467041 28.63172729 -29.07336426 28.63519287 C-39.95495447 28.73373363 -48.92064902 29.65587161 -58.52832031 35.01074219 C-62.08909748 36.93474542 -65.75060239 38.63743138 -69.40678406 40.37132263 C-73.84630514 42.47879715 -78.26920702 44.61773876 -82.68359375 46.77734375 C-89.66591042 50.19011723 -96.6797209 53.53398299 -103.7122345 56.8420105 C-109.19409518 59.44602864 -114.59139444 62.17049843 -119.93994141 65.03735352 C-142.23996979 76.88839542 -165.20755633 85.21046351 -189.19396973 92.98138428 C-193.16761852 94.27760702 -197.13065217 95.6047823 -201.09401989 96.93204689 C-204.94462492 98.21855551 -208.80012116 99.48981572 -212.65743446 100.75605392 C-214.48108405 101.35589776 -216.30349223 101.9595305 -218.12456322 102.56715775 C-220.64378117 103.40437394 -223.16860258 104.22169716 -225.69604492 105.03369141 C-226.43097672 105.28175034 -227.16590851 105.52980927 -227.92311096 105.78538513 C-232.60364545 107.25924471 -236.04817908 107.47006958 -240.9375 106.3125 C-244.00224581 104.63556361 -246.245981 103.21448131 -248.375 100.4375 C-249.23180238 97.20069102 -248.99070292 95.53406186 -247.9375 92.3125 C-229.36315153 61.85844456 -168.24963988 46.10117571 -136.6776123 33.44454956 C-131.59814444 31.40362995 -126.54595177 29.30876552 -121.50834656 27.16674805 C-98.69539984 17.5104743 -75.55547865 10.36902289 -51.58509827 4.26661301 C-49.32628838 3.69101361 -47.0688177 3.11036477 -44.81140137 2.52932739 C-41.22871961 1.61072191 -37.64123083 0.71386355 -34.04877853 -0.16573524 C-32.08428333 -0.64909162 -30.12308117 -1.14577116 -28.16201782 -1.64286804 C-17.91156888 -4.08741361 -9.7670834 -3.91153264 0 0 Z M-118.75 237.25 C-121.70198139 242.37712557 -121.68565415 248.56833867 -120.9375 254.3125 C-119.32126373 257.59022716 -116.97578936 259.57564948 -114 261.6875 C-110.96638961 262.60677588 -109.09536267 262.89251559 -105.9375 262.3125 C-101.18902498 257.00455812 -100.13798807 253.20287967 -100.3125 246.1875 C-100.29316406 245.40246094 -100.27382812 244.61742187 -100.25390625 243.80859375 C-100.29029014 239.49346433 -100.56504955 237.78431121 -103.32421875 234.2890625 C-105.73329654 232.17206714 -105.73329654 232.17206714 -108.375 231.8125 C-112.57577891 232.63216418 -115.80774996 234.10483616 -118.75 237.25 Z " fill="#000000" transform="translate(339.9375,34.6875)"/>
</svg>
